<svg id="my-svg" width="100%" xmlns="http://www.w3.org/2000/svg" xmlns:xlink="http://www.w3.org/1999/xlink" class="mindmapDiagram" style="max-width: 754.926px; background-color: white;" viewBox="5 5 754.9263305664062 467.78179931640625" role="graphics-document document" aria-roledescription="mindmap"><style>#my-svg{font-family:"trebuchet ms",verdana,arial,sans-serif;font-size:16px;fill:#333;}@keyframes edge-animation-frame{from{stroke-dashoffset:0;}}@keyframes dash{to{stroke-dashoffset:0;}}#my-svg .edge-animation-slow{stroke-dasharray:9,5!important;stroke-dashoffset:900;animation:dash 50s linear infinite;stroke-linecap:round;}#my-svg .edge-animation-fast{stroke-dasharray:9,5!important;stroke-dashoffset:900;animation:dash 20s linear infinite;stroke-linecap:round;}#my-svg .error-icon{fill:#552222;}#my-svg .error-text{fill:#552222;stroke:#552222;}#my-svg .edge-thickness-normal{stroke-width:1px;}#my-svg .edge-thickness-thick{stroke-width:3.5px;}#my-svg .edge-pattern-solid{stroke-dasharray:0;}#my-svg .edge-thickness-invisible{stroke-width:0;fill:none;}#my-svg .edge-pattern-dashed{stroke-dasharray:3;}#my-svg .edge-pattern-dotted{stroke-dasharray:2;}#my-svg .marker{fill:#333333;stroke:#333333;}#my-svg .marker.cross{stroke:#333333;}#my-svg svg{font-family:"trebuchet ms",verdana,arial,sans-serif;font-size:16px;}#my-svg p{margin:0;}#my-svg .edge{stroke-width:3;}#my-svg .section--1 rect,#my-svg .section--1 path,#my-svg .section--1 circle,#my-svg .section--1 polygon,#my-svg .section--1 path{fill:hsl(240, 100%, 76.2745098039%);}#my-svg .section--1 text{fill:#ffffff;}#my-svg .node-icon--1{font-size:40px;color:#ffffff;}#my-svg .section-edge--1{stroke:hsl(240, 100%, 76.2745098039%);}#my-svg .edge-depth--1{stroke-width:17;}#my-svg .section--1 line{stroke:hsl(60, 100%, 86.2745098039%);stroke-width:3;}#my-svg .disabled,#my-svg .disabled circle,#my-svg .disabled text{fill:lightgray;}#my-svg .disabled text{fill:#efefef;}#my-svg .section-0 rect,#my-svg .section-0 path,#my-svg .section-0 circle,#my-svg .section-0 polygon,#my-svg .section-0 path{fill:hsl(60, 100%, 73.5294117647%);}#my-svg .section-0 text{fill:black;}#my-svg .node-icon-0{font-size:40px;color:black;}#my-svg .section-edge-0{stroke:hsl(60, 100%, 73.5294117647%);}#my-svg .edge-depth-0{stroke-width:14;}#my-svg .section-0 line{stroke:hsl(240, 100%, 83.5294117647%);stroke-width:3;}#my-svg .disabled,#my-svg .disabled circle,#my-svg .disabled text{fill:lightgray;}#my-svg .disabled text{fill:#efefef;}#my-svg .section-1 rect,#my-svg .section-1 path,#my-svg .section-1 circle,#my-svg .section-1 polygon,#my-svg .section-1 path{fill:hsl(80, 100%, 76.2745098039%);}#my-svg .section-1 text{fill:black;}#my-svg .node-icon-1{font-size:40px;color:black;}#my-svg .section-edge-1{stroke:hsl(80, 100%, 76.2745098039%);}#my-svg .edge-depth-1{stroke-width:11;}#my-svg .section-1 line{stroke:hsl(260, 100%, 86.2745098039%);stroke-width:3;}#my-svg .disabled,#my-svg .disabled circle,#my-svg .disabled text{fill:lightgray;}#my-svg .disabled text{fill:#efefef;}#my-svg .section-2 rect,#my-svg .section-2 path,#my-svg .section-2 circle,#my-svg .section-2 polygon,#my-svg .section-2 path{fill:hsl(270, 100%, 76.2745098039%);}#my-svg .section-2 text{fill:#ffffff;}#my-svg .node-icon-2{font-size:40px;color:#ffffff;}#my-svg .section-edge-2{stroke:hsl(270, 100%, 76.2745098039%);}#my-svg .edge-depth-2{stroke-width:8;}#my-svg .section-2 line{stroke:hsl(90, 100%, 86.2745098039%);stroke-width:3;}#my-svg .disabled,#my-svg .disabled circle,#my-svg .disabled text{fill:lightgray;}#my-svg .disabled text{fill:#efefef;}#my-svg .section-3 rect,#my-svg .section-3 path,#my-svg .section-3 circle,#my-svg .section-3 polygon,#my-svg .section-3 path{fill:hsl(300, 100%, 76.2745098039%);}#my-svg .section-3 text{fill:black;}#my-svg .node-icon-3{font-size:40px;color:black;}#my-svg .section-edge-3{stroke:hsl(300, 100%, 76.2745098039%);}#my-svg .edge-depth-3{stroke-width:5;}#my-svg .section-3 line{stroke:hsl(120, 100%, 86.2745098039%);stroke-width:3;}#my-svg .disabled,#my-svg .disabled circle,#my-svg .disabled text{fill:lightgray;}#my-svg .disabled text{fill:#efefef;}#my-svg .section-4 rect,#my-svg .section-4 path,#my-svg .section-4 circle,#my-svg .section-4 polygon,#my-svg .section-4 path{fill:hsl(330, 100%, 76.2745098039%);}#my-svg .section-4 text{fill:black;}#my-svg .node-icon-4{font-size:40px;color:black;}#my-svg .section-edge-4{stroke:hsl(330, 100%, 76.2745098039%);}#my-svg .edge-depth-4{stroke-width:2;}#my-svg .section-4 line{stroke:hsl(150, 100%, 86.2745098039%);stroke-width:3;}#my-svg .disabled,#my-svg .disabled circle,#my-svg .disabled text{fill:lightgray;}#my-svg .disabled text{fill:#efefef;}#my-svg .section-5 rect,#my-svg .section-5 path,#my-svg .section-5 circle,#my-svg .section-5 polygon,#my-svg .section-5 path{fill:hsl(0, 100%, 76.2745098039%);}#my-svg .section-5 text{fill:black;}#my-svg .node-icon-5{font-size:40px;color:black;}#my-svg .section-edge-5{stroke:hsl(0, 100%, 76.2745098039%);}#my-svg .edge-depth-5{stroke-width:-1;}#my-svg .section-5 line{stroke:hsl(180, 100%, 86.2745098039%);stroke-width:3;}#my-svg .disabled,#my-svg .disabled circle,#my-svg .disabled text{fill:lightgray;}#my-svg .disabled text{fill:#efefef;}#my-svg .section-6 rect,#my-svg .section-6 path,#my-svg .section-6 circle,#my-svg .section-6 polygon,#my-svg .section-6 path{fill:hsl(30, 100%, 76.2745098039%);}#my-svg .section-6 text{fill:black;}#my-svg .node-icon-6{font-size:40px;color:black;}#my-svg .section-edge-6{stroke:hsl(30, 100%, 76.2745098039%);}#my-svg .edge-depth-6{stroke-width:-4;}#my-svg .section-6 line{stroke:hsl(210, 100%, 86.2745098039%);stroke-width:3;}#my-svg .disabled,#my-svg .disabled circle,#my-svg .disabled text{fill:lightgray;}#my-svg .disabled text{fill:#efefef;}#my-svg .section-7 rect,#my-svg .section-7 path,#my-svg .section-7 circle,#my-svg .section-7 polygon,#my-svg .section-7 path{fill:hsl(90, 100%, 76.2745098039%);}#my-svg .section-7 text{fill:black;}#my-svg .node-icon-7{font-size:40px;color:black;}#my-svg .section-edge-7{stroke:hsl(90, 100%, 76.2745098039%);}#my-svg .edge-depth-7{stroke-width:-7;}#my-svg .section-7 line{stroke:hsl(270, 100%, 86.2745098039%);stroke-width:3;}#my-svg .disabled,#my-svg .disabled circle,#my-svg .disabled text{fill:lightgray;}#my-svg .disabled text{fill:#efefef;}#my-svg .section-8 rect,#my-svg .section-8 path,#my-svg .section-8 circle,#my-svg .section-8 polygon,#my-svg .section-8 path{fill:hsl(150, 100%, 76.2745098039%);}#my-svg .section-8 text{fill:black;}#my-svg .node-icon-8{font-size:40px;color:black;}#my-svg .section-edge-8{stroke:hsl(150, 100%, 76.2745098039%);}#my-svg .edge-depth-8{stroke-width:-10;}#my-svg .section-8 line{stroke:hsl(330, 100%, 86.2745098039%);stroke-width:3;}#my-svg .disabled,#my-svg .disabled circle,#my-svg .disabled text{fill:lightgray;}#my-svg .disabled text{fill:#efefef;}#my-svg .section-9 rect,#my-svg .section-9 path,#my-svg .section-9 circle,#my-svg .section-9 polygon,#my-svg .section-9 path{fill:hsl(180, 100%, 76.2745098039%);}#my-svg .section-9 text{fill:black;}#my-svg .node-icon-9{font-size:40px;color:black;}#my-svg .section-edge-9{stroke:hsl(180, 100%, 76.2745098039%);}#my-svg .edge-depth-9{stroke-width:-13;}#my-svg .section-9 line{stroke:hsl(0, 100%, 86.2745098039%);stroke-width:3;}#my-svg .disabled,#my-svg .disabled circle,#my-svg .disabled text{fill:lightgray;}#my-svg .disabled text{fill:#efefef;}#my-svg .section-10 rect,#my-svg .section-10 path,#my-svg .section-10 circle,#my-svg .section-10 polygon,#my-svg .section-10 path{fill:hsl(210, 100%, 76.2745098039%);}#my-svg .section-10 text{fill:black;}#my-svg .node-icon-10{font-size:40px;color:black;}#my-svg .section-edge-10{stroke:hsl(210, 100%, 76.2745098039%);}#my-svg .edge-depth-10{stroke-width:-16;}#my-svg .section-10 line{stroke:hsl(30, 100%, 86.2745098039%);stroke-width:3;}#my-svg .disabled,#my-svg .disabled circle,#my-svg .disabled text{fill:lightgray;}#my-svg .disabled text{fill:#efefef;}#my-svg .section-root rect,#my-svg .section-root path,#my-svg .section-root circle,#my-svg .section-root polygon{fill:hsl(240, 100%, 46.2745098039%);}#my-svg .section-root text{fill:#ffffff;}#my-svg .section-root span{color:#ffffff;}#my-svg .section-2 span{color:#ffffff;}#my-svg .icon-container{height:100%;display:flex;justify-content:center;align-items:center;}#my-svg .edge{fill:none;}#my-svg .mindmap-node-label{dy:1em;alignment-baseline:middle;text-anchor:middle;dominant-baseline:middle;text-align:center;}#my-svg :root{--mermaid-font-family:"trebuchet ms",verdana,arial,sans-serif;}</style><g><marker id="my-svg_mindmap-pointEnd" class="marker mindmap" viewBox="0 0 10 10" refX="5" refY="5" markerUnits="userSpaceOnUse" markerWidth="8" markerHeight="8" orient="auto"><path d="M 0 0 L 10 5 L 0 10 z" class="arrowMarkerPath" style="stroke-width: 1; stroke-dasharray: 1, 0;"/></marker><marker id="my-svg_mindmap-pointStart" class="marker mindmap" viewBox="0 0 10 10" refX="4.5" refY="5" markerUnits="userSpaceOnUse" markerWidth="8" markerHeight="8" orient="auto"><path d="M 0 5 L 10 10 L 10 0 z" class="arrowMarkerPath" style="stroke-width: 1; stroke-dasharray: 1, 0;"/></marker><g class="subgraphs"/><g class="edgePaths"><path d="M361.053,290.994L370.993,293.592C380.933,296.191,400.812,301.388,420.691,306.585C440.57,311.782,460.449,316.978,470.389,319.577L480.328,322.175" id="edge_0_1" class="edge-thickness-normal edge-pattern-solid edge section-edge-0 edge-depth-1" style="undefined;;;undefined" data-edge="true" data-et="edge" data-id="edge_0_1" data-points="W3sieCI6MzYxLjA1MzQzNDAyMjk4NTEzLCJ5IjoyOTAuOTkzODE1Njk3MDI3NTd9LHsieCI6NDIwLjY5MDg2OTExNzY1NTY3LCJ5IjozMDYuNTg0NjE3ODY5MDAyN30seyJ4Ijo0ODAuMzI4MzA0MjEyMzI2MiwieSI6MzIyLjE3NTQyMDA0MDk3Nzl9XQ=="/><path d="M504.258,314.294L507.733,309.986C511.208,305.678,518.157,297.062,525.107,288.446C532.057,279.83,539.006,271.214,542.481,266.906L545.956,262.597" id="edge_1_2" class="edge-thickness-normal edge-pattern-solid edge section-edge-0 edge-depth-3" style="undefined;;;undefined" data-edge="true" data-et="edge" data-id="edge_1_2" data-points="W3sieCI6NTA0LjI1Nzg3OTE3NTMyMzYsInkiOjMxNC4yOTM5Mjk0NzQ1ODU2NH0seyJ4Ijo1MjUuMTA2ODkzNjkzMDUxMywieSI6Mjg4LjQ0NTcwNDc4Mjc5Mjl9LHsieCI6NTQ1Ljk1NTkwODIxMDc3OTEsInkiOjI2Mi41OTc0ODAwOTEwMDAyfV0="/><path d="M509.829,325.375L522.659,324.866C535.489,324.357,561.149,323.339,586.809,322.321C612.469,321.303,638.13,320.285,650.96,319.776L663.79,319.267" id="edge_1_3" class="edge-thickness-normal edge-pattern-solid edge section-edge-0 edge-depth-3" style="undefined;;;undefined" data-edge="true" data-et="edge" data-id="edge_1_3" data-points="W3sieCI6NTA5LjgyODc5NjQ3MTc0LCJ5IjozMjUuMzc0NjgwMTMxODA1Mn0seyJ4Ijo1ODYuODA5MjM5MjQ0ODgxNCwieSI6MzIyLjMyMDU5ODA5NDI3NTN9LHsieCI6NjYzLjc4OTY4MjAxODAyMjcsInkiOjMxOS4yNjY1MTYwNTY3NDU0fV0="/><path d="M505.41,336.613L509.64,340.873C513.869,345.133,522.329,353.652,530.789,362.171C539.248,370.691,547.708,379.21,551.938,383.47L556.168,387.73" id="edge_1_4" class="edge-thickness-normal edge-pattern-solid edge section-edge-0 edge-depth-3" style="undefined;;;undefined" data-edge="true" data-et="edge" data-id="edge_1_4" data-points="W3sieCI6NTA1LjQwOTc5NjU2NjI5OTMsInkiOjMzNi42MTMxNzc0ODg2MjM3fSx7IngiOjUzMC43ODg3MTE5MjY3MDM2LCJ5IjozNjIuMTcxMzUyNTM0NzY0M30seyJ4Ijo1NTYuMTY3NjI3Mjg3MTA4LCJ5IjozODcuNzI5NTI3NTgwOTA0OX1d"/><path d="M335.747,297.615L329.593,303.553C323.439,309.491,311.132,321.367,298.824,333.242C286.517,345.118,274.21,356.994,268.056,362.931L261.902,368.869" id="edge_0_5" class="edge-thickness-normal edge-pattern-solid edge section-edge-1 edge-depth-1" style="undefined;;;undefined" data-edge="true" data-et="edge" data-id="edge_0_5" data-points="W3sieCI6MzM1Ljc0Njg2NDc5MzUwMjIsInkiOjI5Ny42MTU0NTcxNzg4NTc4fSx7IngiOjI5OC44MjQ0NDk0NzE5ODg3LCJ5IjozMzMuMjQyMzM4NDA2MzI0MX0seyJ4IjoyNjEuOTAyMDM0MTUwNDc1MjMsInkiOjM2OC44NjkyMTk2MzM3OTA0fV0="/><path d="M236.582,375.543L224.939,372.544C213.295,369.545,190.009,363.547,166.722,357.549C143.435,351.551,120.149,345.553,108.505,342.554L96.862,339.555" id="edge_5_6" class="edge-thickness-normal edge-pattern-solid edge section-edge-1 edge-depth-3" style="undefined;;;undefined" data-edge="true" data-et="edge" data-id="edge_5_6" data-points="W3sieCI6MjM2LjU4MTg3MzMzMjk2Mzc3LCJ5IjozNzUuNTQzMjM3MTAwOTQ0ODV9LHsieCI6MTY2LjcyMTkxNTM4NTY1NjQ3LCJ5IjozNTcuNTQ4OTgwMDA3NjY2N30seyJ4Ijo5Ni44NjE5NTc0MzgzNDkxOCwieSI6MzM5LjU1NDcyMjkxNDM4ODZ9XQ=="/><path d="M263.246,388.097L268.856,392.17C274.466,396.242,285.686,404.388,296.906,412.533C308.125,420.679,319.345,428.824,324.955,432.897L330.565,436.969" id="edge_5_7" class="edge-thickness-normal edge-pattern-solid edge section-edge-1 edge-depth-3" style="undefined;;;undefined" data-edge="true" data-et="edge" data-id="edge_5_7" data-points="W3sieCI6MjYzLjI0NjIxNzk5NTExODIzLCJ5IjozODguMDk3MTA3NzMwODU1MTZ9LHsieCI6Mjk2LjkwNTUzOTUyMjc3NzQsInkiOjQxMi41MzMyODQzNzU3ODA5fSx7IngiOjMzMC41NjQ4NjEwNTA0MzY2LCJ5Ijo0MzYuOTY5NDYxMDIwNzA2NjZ9XQ=="/><path d="M237.685,385.98L230.031,389.797C222.377,393.615,207.069,401.25,191.762,408.886C176.454,416.521,161.146,424.156,153.492,427.974L145.839,431.791" id="edge_5_8" class="edge-thickness-normal edge-pattern-solid edge section-edge-1 edge-depth-3" style="undefined;;;undefined" data-edge="true" data-et="edge" data-id="edge_5_8" data-points="W3sieCI6MjM3LjY4NDgwNzY5OTY5MjEzLCJ5IjozODUuOTc5ODc4NDM5NjIwNn0seyJ4IjoxOTEuNzYxNjk0OTQ0MjUxNiwieSI6NDA4Ljg4NTUwNjQyNDk3MDJ9LHsieCI6MTQ1LjgzODU4MjE4ODgxMTA1LCJ5Ijo0MzEuNzkxMTM0NDEwMzE5N31d"/><path d="M343.047,272.613L341.456,265.972C339.866,259.332,336.684,246.052,333.503,232.771C330.322,219.491,327.141,206.21,325.55,199.57L323.959,192.929" id="edge_0_9" class="edge-thickness-normal edge-pattern-solid edge section-edge-2 edge-depth-1" style="undefined;;;undefined" data-edge="true" data-et="edge" data-id="edge_0_9" data-points="W3sieCI6MzQzLjA0Njg3MzQ5NDQxMjgsInkiOjI3Mi42MTI1OTcwMzg0NTU5fSx7IngiOjMzMy41MDMxNDM4ODAwOTIsInkiOjIzMi43NzEwMzE2MjQyNzc2N30seyJ4IjozMjMuOTU5NDE0MjY1NzcxMiwieSI6MTkyLjkyOTQ2NjIxMDA5OTQzfV0="/><path d="M306.155,182.838L295.319,186.243C284.484,189.647,262.813,196.457,241.142,203.266C219.47,210.075,197.799,216.884,186.964,220.288L176.128,223.693" id="edge_9_10" class="edge-thickness-normal edge-pattern-solid edge section-edge-2 edge-depth-3" style="undefined;;;undefined" data-edge="true" data-et="edge" data-id="edge_9_10" data-points="W3sieCI6MzA2LjE1NDg3ODUxMTk5MjE0LCJ5IjoxODIuODM4NDE4NjE1NjU1NDh9LHsieCI6MjQxLjE0MTUxNjYyNTQ2OTkzLCJ5IjoyMDMuMjY1NTg2NzUxMTI2NDJ9LHsieCI6MTc2LjEyODE1NDczODk0NzczLCJ5IjoyMjMuNjkyNzU0ODg2NTk3MzZ9XQ=="/><path d="M309.697,167.899L305.155,163.495C300.613,159.09,291.53,150.28,282.446,141.471C273.362,132.661,264.278,123.852,259.736,119.447L255.194,115.042" id="edge_9_11" class="edge-thickness-normal edge-pattern-solid edge section-edge-2 edge-depth-3" style="undefined;;;undefined" data-edge="true" data-et="edge" data-id="edge_9_11" data-points="W3sieCI6MzA5LjY5NzIwMTAxMjU2NjY3LCJ5IjoxNjcuODk5MzY2NzgyMzgzMTd9LHsieCI6MjgyLjQ0NTgwNzIxMjcwNTYzLCJ5IjoxNDEuNDcwODg2NjczOTExOTN9LHsieCI6MjU1LjE5NDQxMzQxMjg0NDU3LCJ5IjoxMTUuMDQyNDA2NTY1NDQwN31d"/><path d="M229.459,105.594L217.763,106.371C206.066,107.147,182.673,108.701,159.28,110.255C135.886,111.809,112.493,113.362,100.796,114.139L89.1,114.916" id="edge_11_12" class="edge-thickness-normal edge-pattern-solid edge section-edge-2 edge-depth-5" style="undefined;;;undefined" data-edge="true" data-et="edge" data-id="edge_11_12" data-points="W3sieCI6MjI5LjQ1OTQ1MzkxMzgzOTU1LCJ5IjoxMDUuNTkzNzE2OTEzMTE1ODF9LHsieCI6MTU5LjI3OTY0NDk3OTMwNzgyLCJ5IjoxMTAuMjU0OTQ2ODcxMjYzOTR9LHsieCI6ODkuMDk5ODM2MDQ0Nzc2MDgsInkiOjExNC45MTYxNzY4Mjk0MTIwN31d"/><path d="M233.677,94.138L229.252,89.832C224.827,85.525,215.977,76.913,207.127,68.3C198.277,59.687,189.427,51.074,185.002,46.768L180.577,42.462" id="edge_11_13" class="edge-thickness-normal edge-pattern-solid edge section-edge-2 edge-depth-5" style="undefined;;;undefined" data-edge="true" data-et="edge" data-id="edge_11_13" data-points="W3sieCI6MjMzLjY3NjgyMjk4NjcxNjU2LCJ5Ijo5NC4xMzgwMzgyNjc1ODAwM30seyJ4IjoyMDcuMTI3MTQxMjU5NTUzOTgsInkiOjY4LjI5OTgxNTY0OTAxNTV9LHsieCI6MTgwLjU3NzQ1OTUzMjM5MTQsInkiOjQyLjQ2MTU5MzAzMDQ1MDk3fV0="/><path d="M256.833,96.17L262.66,92.211C268.487,88.252,280.14,80.334,291.793,72.416C303.446,64.498,315.099,56.58,320.926,52.622L326.752,48.663" id="edge_11_14" class="edge-thickness-normal edge-pattern-solid edge section-edge-2 edge-depth-5" style="undefined;;;undefined" data-edge="true" data-et="edge" data-id="edge_11_14" data-points="W3sieCI6MjU2LjgzMzQ4ODI3OTY5NDcsInkiOjk2LjE2OTU2MTE2Mjc1NzY3fSx7IngiOjI5MS43OTI4MjA2NDQ0ODA4LCJ5Ijo3Mi40MTYwODU5NzMwMDYzMn0seyJ4IjozMjYuNzUyMTUzMDA5MjY2OSwieSI6NDguNjYyNjEwNzgzMjU0OTd9XQ=="/><path d="M334.699,173.611L344.93,170.21C355.161,166.809,375.623,160.008,396.085,153.207C416.547,146.405,437.009,139.604,447.24,136.203L457.471,132.802" id="edge_9_15" class="edge-thickness-normal edge-pattern-solid edge section-edge-2 edge-depth-3" style="undefined;;;undefined" data-edge="true" data-et="edge" data-id="edge_9_15" data-points="W3sieCI6MzM0LjY5OTQwMTk5NDY5MjcsInkiOjE3My42MTA3ODkyNzExOTA3NX0seyJ4IjozOTYuMDg1NDI5Njg3NTk4MiwieSI6MTUzLjIwNjU3Nzg3NTQ1Mjd9LHsieCI6NDU3LjQ3MTQ1NzM4MDUwMzcsInkiOjEzMi44MDIzNjY0Nzk3MTQ2NH1d"/><path d="M486.662,129.219L497.332,130.037C508.003,130.856,529.344,132.494,550.685,134.131C572.026,135.769,593.367,137.406,604.038,138.225L614.708,139.044" id="edge_15_16" class="edge-thickness-normal edge-pattern-solid edge section-edge-2 edge-depth-5" style="undefined;;;undefined" data-edge="true" data-et="edge" data-id="edge_15_16" data-points="W3sieCI6NDg2LjY2MTc2MDM5NzYzNjgsInkiOjEyOS4yMTg1ODgzODkxMDg4Mn0seyJ4Ijo1NTAuNjg0OTAxMzMyMzYyMSwieSI6MTM0LjEzMTA3NDk3MzgzMDV9LHsieCI6NjE0LjcwODA0MjI2NzA4NzQsInkiOjEzOS4wNDM1NjE1NTg1NTIxN31d"/><path d="M481.214,116.47L484.82,112.07C488.426,107.671,495.637,98.873,502.848,90.074C510.06,81.276,517.271,72.477,520.877,68.078L524.482,63.678" id="edge_15_17" class="edge-thickness-normal edge-pattern-solid edge section-edge-2 edge-depth-5" style="undefined;;;undefined" data-edge="true" data-et="edge" data-id="edge_15_17" data-points="W3sieCI6NDgxLjIxNDE4NDAyMjczMjI0LCJ5IjoxMTYuNDY5NzU2OTcwNTM0MzV9LHsieCI6NTAyLjg0ODI0MTkyMTI4MDQsInkiOjkwLjA3NDA4MjI1NjIzOTd9LHsieCI6NTI0LjQ4MjI5OTgxOTgyODUsInkiOjYzLjY3ODQwNzU0MTk0NTA2fV0="/></g><g class="edgeLabels"><g class="edgeLabel"><g class="label" data-id="edge_0_1" transform="translate(0, 0)"><foreignObject width="0" height="0"><div xmlns="http://www.w3.org/1999/xhtml" class="labelBkg" style="display: table-cell; white-space: nowrap; line-height: 1.5; max-width: 200px; text-align: center;"><span class="edgeLabel"></span></div></foreignObject></g></g><g class="edgeLabel"><g class="label" data-id="edge_1_2" transform="translate(0, 0)"><foreignObject width="0" height="0"><div xmlns="http://www.w3.org/1999/xhtml" class="labelBkg" style="display: table-cell; white-space: nowrap; line-height: 1.5; max-width: 200px; text-align: center;"><span class="edgeLabel"></span></div></foreignObject></g></g><g class="edgeLabel"><g class="label" data-id="edge_1_3" transform="translate(0, 0)"><foreignObject width="0" height="0"><div xmlns="http://www.w3.org/1999/xhtml" class="labelBkg" style="display: table-cell; white-space: nowrap; line-height: 1.5; max-width: 200px; text-align: center;"><span class="edgeLabel"></span></div></foreignObject></g></g><g class="edgeLabel"><g class="label" data-id="edge_1_4" transform="translate(0, 0)"><foreignObject width="0" height="0"><div xmlns="http://www.w3.org/1999/xhtml" class="labelBkg" style="display: table-cell; white-space: nowrap; line-height: 1.5; max-width: 200px; text-align: center;"><span class="edgeLabel"></span></div></foreignObject></g></g><g class="edgeLabel"><g class="label" data-id="edge_0_5" transform="translate(0, 0)"><foreignObject width="0" height="0"><div xmlns="http://www.w3.org/1999/xhtml" class="labelBkg" style="display: table-cell; white-space: nowrap; line-height: 1.5; max-width: 200px; text-align: center;"><span class="edgeLabel"></span></div></foreignObject></g></g><g class="edgeLabel"><g class="label" data-id="edge_5_6" transform="translate(0, 0)"><foreignObject width="0" height="0"><div xmlns="http://www.w3.org/1999/xhtml" class="labelBkg" style="display: table-cell; white-space: nowrap; line-height: 1.5; max-width: 200px; text-align: center;"><span class="edgeLabel"></span></div></foreignObject></g></g><g class="edgeLabel"><g class="label" data-id="edge_5_7" transform="translate(0, 0)"><foreignObject width="0" height="0"><div xmlns="http://www.w3.org/1999/xhtml" class="labelBkg" style="display: table-cell; white-space: nowrap; line-height: 1.5; max-width: 200px; text-align: center;"><span class="edgeLabel"></span></div></foreignObject></g></g><g class="edgeLabel"><g class="label" data-id="edge_5_8" transform="translate(0, 0)"><foreignObject width="0" height="0"><div xmlns="http://www.w3.org/1999/xhtml" class="labelBkg" style="display: table-cell; white-space: nowrap; line-height: 1.5; max-width: 200px; text-align: center;"><span class="edgeLabel"></span></div></foreignObject></g></g><g class="edgeLabel"><g class="label" data-id="edge_0_9" transform="translate(0, 0)"><foreignObject width="0" height="0"><div xmlns="http://www.w3.org/1999/xhtml" class="labelBkg" style="display: table-cell; white-space: nowrap; line-height: 1.5; max-width: 200px; text-align: center;"><span class="edgeLabel"></span></div></foreignObject></g></g><g class="edgeLabel"><g class="label" data-id="edge_9_10" transform="translate(0, 0)"><foreignObject width="0" height="0"><div xmlns="http://www.w3.org/1999/xhtml" class="labelBkg" style="display: table-cell; white-space: nowrap; line-height: 1.5; max-width: 200px; text-align: center;"><span class="edgeLabel"></span></div></foreignObject></g></g><g class="edgeLabel"><g class="label" data-id="edge_9_11" transform="translate(0, 0)"><foreignObject width="0" height="0"><div xmlns="http://www.w3.org/1999/xhtml" class="labelBkg" style="display: table-cell; white-space: nowrap; line-height: 1.5; max-width: 200px; text-align: center;"><span class="edgeLabel"></span></div></foreignObject></g></g><g class="edgeLabel"><g class="label" data-id="edge_11_12" transform="translate(0, 0)"><foreignObject width="0" height="0"><div xmlns="http://www.w3.org/1999/xhtml" class="labelBkg" style="display: table-cell; white-space: nowrap; line-height: 1.5; max-width: 200px; text-align: center;"><span class="edgeLabel"></span></div></foreignObject></g></g><g class="edgeLabel"><g class="label" data-id="edge_11_13" transform="translate(0, 0)"><foreignObject width="0" height="0"><div xmlns="http://www.w3.org/1999/xhtml" class="labelBkg" style="display: table-cell; white-space: nowrap; line-height: 1.5; max-width: 200px; text-align: center;"><span class="edgeLabel"></span></div></foreignObject></g></g><g class="edgeLabel"><g class="label" data-id="edge_11_14" transform="translate(0, 0)"><foreignObject width="0" height="0"><div xmlns="http://www.w3.org/1999/xhtml" class="labelBkg" style="display: table-cell; white-space: nowrap; line-height: 1.5; max-width: 200px; text-align: center;"><span class="edgeLabel"></span></div></foreignObject></g></g><g class="edgeLabel"><g class="label" data-id="edge_9_15" transform="translate(0, 0)"><foreignObject width="0" height="0"><div xmlns="http://www.w3.org/1999/xhtml" class="labelBkg" style="display: table-cell; white-space: nowrap; line-height: 1.5; max-width: 200px; text-align: center;"><span class="edgeLabel"></span></div></foreignObject></g></g><g class="edgeLabel"><g class="label" data-id="edge_15_16" transform="translate(0, 0)"><foreignObject width="0" height="0"><div xmlns="http://www.w3.org/1999/xhtml" class="labelBkg" style="display: table-cell; white-space: nowrap; line-height: 1.5; max-width: 200px; text-align: center;"><span class="edgeLabel"></span></div></foreignObject></g></g><g class="edgeLabel"><g class="label" data-id="edge_15_17" transform="translate(0, 0)"><foreignObject width="0" height="0"><div xmlns="http://www.w3.org/1999/xhtml" class="labelBkg" style="display: table-cell; white-space: nowrap; line-height: 1.5; max-width: 200px; text-align: center;"><span class="edgeLabel"></span></div></foreignObject></g></g></g><g class="nodes"><g class="node mindmap-node section-root section--1" id="node_0" transform="translate(346.5411507933884, 287.19992119876247)"><circle class="basic label-container" style="" r="36.890625" cx="0" cy="0"/><g class="label" style="" transform="translate(-26.890625, -12)"><rect/><foreignObject width="53.78125" height="24"><div xmlns="http://www.w3.org/1999/xhtml" style="display: table-cell; white-space: nowrap; line-height: 1.5; max-width: 200px; text-align: center;"><span class="nodeLabel"><p>🧠 Skill</p></span></div></foreignObject></g></g><g class="node mindmap-node section-0" id="node_1" transform="translate(494.84058744192293, 325.969314539243)"><path id="node-1" class="node-bkg node-0" style="" d="M-56.6796875 12&#10;    v-24&#10;    q0,-5 5,-5&#10;    h103.359375&#10;    q5,0 5,5&#10;    v24&#10;    q0,5 -5,5&#10;    h-103.359375&#10;    q-5,0 -5,-5&#10;    Z"/><line class="node-line-" x1="-56.6796875" y1="17" x2="56.6796875" y2="17"/><g class="label" style="" transform="translate(-36.6796875, -12)"><rect/><foreignObject width="73.359375" height="24"><div xmlns="http://www.w3.org/1999/xhtml" style="display: table-cell; white-space: nowrap; line-height: 1.5; max-width: 200px; text-align: center;"><span class="nodeLabel"><p>📄 Simple</p></span></div></foreignObject></g></g><g class="node mindmap-node section-0" id="node_2" transform="translate(555.3731999441798, 250.92209502634284)"><path id="node-2" class="node-bkg node-0" style="" d="M-72.03125 12&#10;    v-24&#10;    q0,-5 5,-5&#10;    h134.0625&#10;    q5,0 5,5&#10;    v24&#10;    q0,5 -5,5&#10;    h-134.0625&#10;    q-5,0 -5,-5&#10;    Z"/><line class="node-line-" x1="-72.03125" y1="17" x2="72.03125" y2="17"/><g class="label" style="" transform="translate(-52.03125, -12)"><rect/><foreignObject width="104.0625" height="24"><div xmlns="http://www.w3.org/1999/xhtml" style="display: table-cell; white-space: nowrap; line-height: 1.5; max-width: 200px; text-align: center;"><span class="nodeLabel"><p>SKILL.md only</p></span></div></foreignObject></g></g><g class="node mindmap-node section-0" id="node_3" transform="translate(678.7778910478398, 318.6718816493076)"><path id="node-3" class="node-bkg node-0" style="" d="M-71.1484375 12&#10;    v-24&#10;    q0,-5 5,-5&#10;    h132.296875&#10;    q5,0 5,5&#10;    v24&#10;    q0,5 -5,5&#10;    h-132.296875&#10;    q-5,0 -5,-5&#10;    Z"/><line class="node-line-" x1="-71.1484375" y1="17" x2="71.1484375" y2="17"/><g class="label" style="" transform="translate(-51.1484375, -12)"><rect/><foreignObject width="102.296875" height="24"><div xmlns="http://www.w3.org/1999/xhtml" style="display: table-cell; white-space: nowrap; line-height: 1.5; max-width: 200px; text-align: center;"><span class="nodeLabel"><p>Self-contained</p></span></div></foreignObject></g></g><g class="node mindmap-node section-0" id="node_4" transform="translate(566.7368364114843, 398.37339053028563)"><path id="node-4" class="node-bkg node-0" style="" d="M-73.8046875 12&#10;    v-24&#10;    q0,-5 5,-5&#10;    h137.609375&#10;    q5,0 5,5&#10;    v24&#10;    q0,5 -5,5&#10;    h-137.609375&#10;    q-5,0 -5,-5&#10;    Z"/><line class="node-line-" x1="-73.8046875" y1="17" x2="73.8046875" y2="17"/><g class="label" style="" transform="translate(-53.8046875, -12)"><rect/><foreignObject width="107.609375" height="24"><div xmlns="http://www.w3.org/1999/xhtml" style="display: table-cell; white-space: nowrap; line-height: 1.5; max-width: 200px; text-align: center;"><span class="nodeLabel"><p>Quick to create</p></span></div></foreignObject></g></g><g class="node mindmap-node section-1" id="node_5" transform="translate(251.10774815058903, 379.28475561388575)"><path id="node-5" class="node-bkg node-0" style="" d="M-60.6796875 12&#10;    v-24&#10;    q0,-5 5,-5&#10;    h111.359375&#10;    q5,0 5,5&#10;    v24&#10;    q0,5 -5,5&#10;    h-111.359375&#10;    q-5,0 -5,-5&#10;    Z"/><line class="node-line-" x1="-60.6796875" y1="17" x2="60.6796875" y2="17"/><g class="label" style="" transform="translate(-40.6796875, -12)"><rect/><foreignObject width="81.359375" height="24"><div xmlns="http://www.w3.org/1999/xhtml" style="display: table-cell; white-space: nowrap; line-height: 1.5; max-width: 200px; text-align: center;"><span class="nodeLabel"><p>📦 Medium</p></span></div></foreignObject></g></g><g class="node mindmap-node section-1" id="node_6" transform="translate(82.33608262072391, 335.8132044014477)"><path id="node-6" class="node-bkg node-0" style="" d="M-55.1328125 12&#10;    v-24&#10;    q0,-5 5,-5&#10;    h100.265625&#10;    q5,0 5,5&#10;    v24&#10;    q0,5 -5,5&#10;    h-100.265625&#10;    q-5,0 -5,-5&#10;    Z"/><line class="node-line-" x1="-55.1328125" y1="17" x2="55.1328125" y2="17"/><g class="label" style="" transform="translate(-35.1328125, -12)"><rect/><foreignObject width="70.265625" height="24"><div xmlns="http://www.w3.org/1999/xhtml" style="display: table-cell; white-space: nowrap; line-height: 1.5; max-width: 200px; text-align: center;"><span class="nodeLabel"><p>SKILL.md</p></span></div></foreignObject></g></g><g class="node mindmap-node section-1" id="node_7" transform="translate(342.7033308949658, 445.78181313767607)"><path id="node-7" class="node-bkg node-0" style="" d="M-82.6796875 12&#10;    v-24&#10;    q0,-5 5,-5&#10;    h155.359375&#10;    q5,0 5,5&#10;    v24&#10;    q0,5 -5,5&#10;    h-155.359375&#10;    q-5,0 -5,-5&#10;    Z"/><line class="node-line-" x1="-82.6796875" y1="17" x2="82.6796875" y2="17"/><g class="label" style="" transform="translate(-62.6796875, -12)"><rect/><foreignObject width="125.359375" height="24"><div xmlns="http://www.w3.org/1999/xhtml" style="display: table-cell; white-space: nowrap; line-height: 1.5; max-width: 200px; text-align: center;"><span class="nodeLabel"><p>REFERENCE.md</p></span></div></foreignObject></g></g><g class="node mindmap-node section-1" id="node_8" transform="translate(132.41564173791414, 438.4862572360546)"><path id="node-8" class="node-bkg node-0" style="" d="M-76.46875 12&#10;    v-24&#10;    q0,-5 5,-5&#10;    h142.9375&#10;    q5,0 5,5&#10;    v24&#10;    q0,5 -5,5&#10;    h-142.9375&#10;    q-5,0 -5,-5&#10;    Z"/><line class="node-line-" x1="-76.46875" y1="17" x2="76.46875" y2="17"/><g class="label" style="" transform="translate(-56.46875, -12)"><rect/><foreignObject width="112.9375" height="24"><div xmlns="http://www.w3.org/1999/xhtml" style="display: table-cell; white-space: nowrap; line-height: 1.5; max-width: 200px; text-align: center;"><span class="nodeLabel"><p>EXAMPLES.md</p></span></div></foreignObject></g></g><g class="node mindmap-node section-2" id="node_9" transform="translate(320.4651369667956, 178.34214204979287)"><path id="node-9" class="node-bkg node-0" style="" d="M-63.7890625 12&#10;    v-24&#10;    q0,-5 5,-5&#10;    h117.578125&#10;    q5,0 5,5&#10;    v24&#10;    q0,5 -5,5&#10;    h-117.578125&#10;    q-5,0 -5,-5&#10;    Z"/><line class="node-line-" x1="-63.7890625" y1="17" x2="63.7890625" y2="17"/><g class="label" style="" transform="translate(-43.7890625, -12)"><rect/><foreignObject width="87.578125" height="24"><div xmlns="http://www.w3.org/1999/xhtml" style="display: table-cell; white-space: nowrap; line-height: 1.5; max-width: 200px; text-align: center;"><span class="nodeLabel"><p>🏗️ Complex</p></span></div></foreignObject></g></g><g class="node mindmap-node section-2" id="node_10" transform="translate(161.81789628414424, 228.18903145245997)"><path id="node-10" class="node-bkg node-0" style="" d="M-55.1328125 12&#10;    v-24&#10;    q0,-5 5,-5&#10;    h100.265625&#10;    q5,0 5,5&#10;    v24&#10;    q0,5 -5,5&#10;    h-100.265625&#10;    q-5,0 -5,-5&#10;    Z"/><line class="node-line-" x1="-55.1328125" y1="17" x2="55.1328125" y2="17"/><g class="label" style="" transform="translate(-35.1328125, -12)"><rect/><foreignObject width="70.265625" height="24"><div xmlns="http://www.w3.org/1999/xhtml" style="display: table-cell; white-space: nowrap; line-height: 1.5; max-width: 200px; text-align: center;"><span class="nodeLabel"><p>SKILL.md</p></span></div></foreignObject></g></g><g class="node mindmap-node section-2" id="node_11" transform="translate(244.42647745861564, 104.599631298031)"><path id="node-11" class="node-bkg node-0" style="" d="M-56.0234375 12&#10;    v-24&#10;    q0,-5 5,-5&#10;    h102.046875&#10;    q5,0 5,5&#10;    v24&#10;    q0,5 -5,5&#10;    h-102.046875&#10;    q-5,0 -5,-5&#10;    Z"/><line class="node-line-" x1="-56.0234375" y1="17" x2="56.0234375" y2="17"/><g class="label" style="" transform="translate(-36.0234375, -12)"><rect/><foreignObject width="72.046875" height="24"><div xmlns="http://www.w3.org/1999/xhtml" style="display: table-cell; white-space: nowrap; line-height: 1.5; max-width: 200px; text-align: center;"><span class="nodeLabel"><p>reference/</p></span></div></foreignObject></g></g><g class="node mindmap-node section-2" id="node_12" transform="translate(74.1328125, 115.91026244449688)"><path id="node-12" class="node-bkg node-0" style="" d="M-59.1328125 12&#10;    v-24&#10;    q0,-5 5,-5&#10;    h108.265625&#10;    q5,0 5,5&#10;    v24&#10;    q0,5 -5,5&#10;    h-108.265625&#10;    q-5,0 -5,-5&#10;    Z"/><line class="node-line-" x1="-59.1328125" y1="17" x2="59.1328125" y2="17"/><g class="label" style="" transform="translate(-39.1328125, -12)"><rect/><foreignObject width="78.265625" height="24"><div xmlns="http://www.w3.org/1999/xhtml" style="display: table-cell; white-space: nowrap; line-height: 1.5; max-width: 200px; text-align: center;"><span class="nodeLabel"><p>finance.md</p></span></div></foreignObject></g></g><g class="node mindmap-node section-2" id="node_13" transform="translate(169.82780506049232, 32)"><path id="node-13" class="node-bkg node-0" style="" d="M-52.015625 12&#10;    v-24&#10;    q0,-5 5,-5&#10;    h94.03125&#10;    q5,0 5,5&#10;    v24&#10;    q0,5 -5,5&#10;    h-94.03125&#10;    q-5,0 -5,-5&#10;    Z"/><line class="node-line-" x1="-52.015625" y1="17" x2="52.015625" y2="17"/><g class="label" style="" transform="translate(-32.015625, -12)"><rect/><foreignObject width="64.03125" height="24"><div xmlns="http://www.w3.org/1999/xhtml" style="display: table-cell; white-space: nowrap; line-height: 1.5; max-width: 200px; text-align: center;"><span class="nodeLabel"><p>sales.md</p></span></div></foreignObject></g></g><g class="node mindmap-node section-2" id="node_14" transform="translate(339.15916383034596, 40.23254064798164)"><path id="node-14" class="node-bkg node-0" style="" d="M-60.0234375 12&#10;    v-24&#10;    q0,-5 5,-5&#10;    h110.046875&#10;    q5,0 5,5&#10;    v24&#10;    q0,5 -5,5&#10;    h-110.046875&#10;    q-5,0 -5,-5&#10;    Z"/><line class="node-line-" x1="-60.0234375" y1="17" x2="60.0234375" y2="17"/><g class="label" style="" transform="translate(-40.0234375, -12)"><rect/><foreignObject width="80.046875" height="24"><div xmlns="http://www.w3.org/1999/xhtml" style="display: table-cell; white-space: nowrap; line-height: 1.5; max-width: 200px; text-align: center;"><span class="nodeLabel"><p>product.md</p></span></div></foreignObject></g></g><g class="node mindmap-node section-2" id="node_15" transform="translate(471.7057224084008, 128.07101370111252)"><path id="node-15" class="node-bkg node-0" style="" d="M-45.3359375 12&#10;    v-24&#10;    q0,-5 5,-5&#10;    h80.671875&#10;    q5,0 5,5&#10;    v24&#10;    q0,5 -5,5&#10;    h-80.671875&#10;    q-5,0 -5,-5&#10;    Z"/><line class="node-line-" x1="-45.3359375" y1="17" x2="45.3359375" y2="17"/><g class="label" style="" transform="translate(-25.3359375, -12)"><rect/><foreignObject width="50.671875" height="24"><div xmlns="http://www.w3.org/1999/xhtml" style="display: table-cell; white-space: nowrap; line-height: 1.5; max-width: 200px; text-align: center;"><span class="nodeLabel"><p>scripts/</p></span></div></foreignObject></g></g><g class="node mindmap-node section-2" id="node_16" transform="translate(629.6640802563234, 140.19113624654847)"><path id="node-16" class="node-bkg node-0" style="" d="M-58.25 12&#10;    v-24&#10;    q0,-5 5,-5&#10;    h106.5&#10;    q5,0 5,5&#10;    v24&#10;    q0,5 -5,5&#10;    h-106.5&#10;    q-5,0 -5,-5&#10;    Z"/><line class="node-line-" x1="-58.25" y1="17" x2="58.25" y2="17"/><g class="label" style="" transform="translate(-38.25, -12)"><rect/><foreignObject width="76.5" height="24"><div xmlns="http://www.w3.org/1999/xhtml" style="display: table-cell; white-space: nowrap; line-height: 1.5; max-width: 200px; text-align: center;"><span class="nodeLabel"><p>analyze.py</p></span></div></foreignObject></g></g><g class="node mindmap-node section-2" id="node_17" transform="translate(533.99076143416, 52.07715081136689)"><path id="node-17" class="node-bkg node-0" style="" d="M-58.25 12&#10;    v-24&#10;    q0,-5 5,-5&#10;    h106.5&#10;    q5,0 5,5&#10;    v24&#10;    q0,5 -5,5&#10;    h-106.5&#10;    q-5,0 -5,-5&#10;    Z"/><line class="node-line-" x1="-58.25" y1="17" x2="58.25" y2="17"/><g class="label" style="" transform="translate(-38.25, -12)"><rect/><foreignObject width="76.5" height="24"><div xmlns="http://www.w3.org/1999/xhtml" style="display: table-cell; white-space: nowrap; line-height: 1.5; max-width: 200px; text-align: center;"><span class="nodeLabel"><p>validate.py</p></span></div></foreignObject></g></g></g></g></svg>