<svg id="my-svg" width="100%" xmlns="http://www.w3.org/2000/svg" xmlns:xlink="http://www.w3.org/1999/xlink" style="max-width: 700px; background-color: white;" viewBox="0 0 700 500" role="graphics-document document" aria-roledescription="xychart"><style>#my-svg{font-family:"trebuchet ms",verdana,arial,sans-serif;font-size:16px;fill:#333;}@keyframes edge-animation-frame{from{stroke-dashoffset:0;}}@keyframes dash{to{stroke-dashoffset:0;}}#my-svg .edge-animation-slow{stroke-dasharray:9,5!important;stroke-dashoffset:900;animation:dash 50s linear infinite;stroke-linecap:round;}#my-svg .edge-animation-fast{stroke-dasharray:9,5!important;stroke-dashoffset:900;animation:dash 20s linear infinite;stroke-linecap:round;}#my-svg .error-icon{fill:#552222;}#my-svg .error-text{fill:#552222;stroke:#552222;}#my-svg .edge-thickness-normal{stroke-width:1px;}#my-svg .edge-thickness-thick{stroke-width:3.5px;}#my-svg .edge-pattern-solid{stroke-dasharray:0;}#my-svg .edge-thickness-invisible{stroke-width:0;fill:none;}#my-svg .edge-pattern-dashed{stroke-dasharray:3;}#my-svg .edge-pattern-dotted{stroke-dasharray:2;}#my-svg .marker{fill:#333333;stroke:#333333;}#my-svg .marker.cross{stroke:#333333;}#my-svg svg{font-family:"trebuchet ms",verdana,arial,sans-serif;font-size:16px;}#my-svg p{margin:0;}#my-svg :root{--mermaid-font-family:"trebuchet ms",verdana,arial,sans-serif;}</style><g/><g class="main"><rect width="700" height="500" class="background" fill="white"/><g class="chart-title"><text x="0" y="0" fill="#131300" font-size="20" dominant-baseline="middle" text-anchor="middle" transform="translate(350, 21) rotate(0)">Błędy HTTP 5xx podczas incydentu</text></g><g class="plot"><g class="line-plot-0"><path d="M85.196,438.55L139.485,111.35L193.774,172.7L248.063,90.9L302.353,213.6L356.642,254.5L410.931,274.95L465.22,377.2L519.509,397.65L573.798,418.1L628.087,426.28L682.376,438.55" fill="none" stroke="#ECECFF" stroke-width="2"/></g></g><g class="bottom-axis"><g class="axis-line"><path d="M 67.57226753234863,468 L 700,468" fill="none" stroke="#131300" stroke-width="2"/></g><g class="label"><text x="0" y="0" fill="#131300" font-size="14" dominant-baseline="text-before-edge" text-anchor="middle" transform="translate(85.19629096984863, 479) rotate(0)">11:00</text><text x="0" y="0" fill="#131300" font-size="14" dominant-baseline="text-before-edge" text-anchor="middle" transform="translate(139.4853532964533, 479) rotate(0)">11:30</text><text x="0" y="0" fill="#131300" font-size="14" dominant-baseline="text-before-edge" text-anchor="middle" transform="translate(193.77441562305796, 479) rotate(0)">12:00</text><text x="0" y="0" fill="#131300" font-size="14" dominant-baseline="text-before-edge" text-anchor="middle" transform="translate(248.06347794966265, 479) rotate(0)">12:30</text><text x="0" y="0" fill="#131300" font-size="14" dominant-baseline="text-before-edge" text-anchor="middle" transform="translate(302.3525402762673, 479) rotate(0)">13:00</text><text x="0" y="0" fill="#131300" font-size="14" dominant-baseline="text-before-edge" text-anchor="middle" transform="translate(356.641602602872, 479) rotate(0)">13:30</text><text x="0" y="0" fill="#131300" font-size="14" dominant-baseline="text-before-edge" text-anchor="middle" transform="translate(410.9306649294767, 479) rotate(0)">14:00</text><text x="0" y="0" fill="#131300" font-size="14" dominant-baseline="text-before-edge" text-anchor="middle" transform="translate(465.21972725608134, 479) rotate(0)">14:30</text><text x="0" y="0" fill="#131300" font-size="14" dominant-baseline="text-before-edge" text-anchor="middle" transform="translate(519.508789582686, 479) rotate(0)">15:00</text><text x="0" y="0" fill="#131300" font-size="14" dominant-baseline="text-before-edge" text-anchor="middle" transform="translate(573.7978519092907, 479) rotate(0)">15:30</text><text x="0" y="0" fill="#131300" font-size="14" dominant-baseline="text-before-edge" text-anchor="middle" transform="translate(628.0869142358954, 479) rotate(0)">16:00</text><text x="0" y="0" fill="#131300" font-size="14" dominant-baseline="text-before-edge" text-anchor="middle" transform="translate(682.3759765625, 479) rotate(0)">17:00</text></g><g class="ticks"><path d="M 85.19629096984863,469 L 85.19629096984863,474" fill="none" stroke="#131300" stroke-width="2"/><path d="M 139.4853532964533,469 L 139.4853532964533,474" fill="none" stroke="#131300" stroke-width="2"/><path d="M 193.77441562305796,469 L 193.77441562305796,474" fill="none" stroke="#131300" stroke-width="2"/><path d="M 248.06347794966265,469 L 248.06347794966265,474" fill="none" stroke="#131300" stroke-width="2"/><path d="M 302.3525402762673,469 L 302.3525402762673,474" fill="none" stroke="#131300" stroke-width="2"/><path d="M 356.641602602872,469 L 356.641602602872,474" fill="none" stroke="#131300" stroke-width="2"/><path d="M 410.9306649294767,469 L 410.9306649294767,474" fill="none" stroke="#131300" stroke-width="2"/><path d="M 465.21972725608134,469 L 465.21972725608134,474" fill="none" stroke="#131300" stroke-width="2"/><path d="M 519.508789582686,469 L 519.508789582686,474" fill="none" stroke="#131300" stroke-width="2"/><path d="M 573.7978519092907,469 L 573.7978519092907,474" fill="none" stroke="#131300" stroke-width="2"/><path d="M 628.0869142358954,469 L 628.0869142358954,474" fill="none" stroke="#131300" stroke-width="2"/><path d="M 682.3759765625,469 L 682.3759765625,474" fill="none" stroke="#131300" stroke-width="2"/></g></g><g class="left-axis"><g class="axisl-line"><path d="M 66.57226753234863,42 L 66.57226753234863,467" fill="none" stroke="#131300" stroke-width="2"/></g><g class="label"><text x="0" y="0" fill="#131300" font-size="14" dominant-baseline="middle" text-anchor="end" transform="translate(55.57226753234863, 50) rotate(0)">100</text><text x="0" y="0" fill="#131300" font-size="14" dominant-baseline="middle" text-anchor="end" transform="translate(55.57226753234863, 90.89999999999999) rotate(0)">90</text><text x="0" y="0" fill="#131300" font-size="14" dominant-baseline="middle" text-anchor="end" transform="translate(55.57226753234863, 131.79999999999998) rotate(0)">80</text><text x="0" y="0" fill="#131300" font-size="14" dominant-baseline="middle" text-anchor="end" transform="translate(55.57226753234863, 172.70000000000002) rotate(0)">70</text><text x="0" y="0" fill="#131300" font-size="14" dominant-baseline="middle" text-anchor="end" transform="translate(55.57226753234863, 213.60000000000002) rotate(0)">60</text><text x="0" y="0" fill="#131300" font-size="14" dominant-baseline="middle" text-anchor="end" transform="translate(55.57226753234863, 254.5) rotate(0)">50</text><text x="0" y="0" fill="#131300" font-size="14" dominant-baseline="middle" text-anchor="end" transform="translate(55.57226753234863, 295.4) rotate(0)">40</text><text x="0" y="0" fill="#131300" font-size="14" dominant-baseline="middle" text-anchor="end" transform="translate(55.57226753234863, 336.29999999999995) rotate(0)">30</text><text x="0" y="0" fill="#131300" font-size="14" dominant-baseline="middle" text-anchor="end" transform="translate(55.57226753234863, 377.20000000000005) rotate(0)">20</text><text x="0" y="0" fill="#131300" font-size="14" dominant-baseline="middle" text-anchor="end" transform="translate(55.57226753234863, 418.1) rotate(0)">10</text><text x="0" y="0" fill="#131300" font-size="14" dominant-baseline="middle" text-anchor="end" transform="translate(55.57226753234863, 459) rotate(0)">0</text></g><g class="ticks"><path d="M 65.57226753234863,50 L 60.57226753234863,50" fill="none" stroke="#131300" stroke-width="2"/><path d="M 65.57226753234863,90.89999999999999 L 60.57226753234863,90.89999999999999" fill="none" stroke="#131300" stroke-width="2"/><path d="M 65.57226753234863,131.79999999999998 L 60.57226753234863,131.79999999999998" fill="none" stroke="#131300" stroke-width="2"/><path d="M 65.57226753234863,172.70000000000002 L 60.57226753234863,172.70000000000002" fill="none" stroke="#131300" stroke-width="2"/><path d="M 65.57226753234863,213.60000000000002 L 60.57226753234863,213.60000000000002" fill="none" stroke="#131300" stroke-width="2"/><path d="M 65.57226753234863,254.5 L 60.57226753234863,254.5" fill="none" stroke="#131300" stroke-width="2"/><path d="M 65.57226753234863,295.4 L 60.57226753234863,295.4" fill="none" stroke="#131300" stroke-width="2"/><path d="M 65.57226753234863,336.29999999999995 L 60.57226753234863,336.29999999999995" fill="none" stroke="#131300" stroke-width="2"/><path d="M 65.57226753234863,377.20000000000005 L 60.57226753234863,377.20000000000005" fill="none" stroke="#131300" stroke-width="2"/><path d="M 65.57226753234863,418.1 L 60.57226753234863,418.1" fill="none" stroke="#131300" stroke-width="2"/><path d="M 65.57226753234863,459 L 60.57226753234863,459" fill="none" stroke="#131300" stroke-width="2"/></g><g class="title"><text x="0" y="0" fill="#131300" font-size="16" dominant-baseline="text-before-edge" text-anchor="middle" transform="translate(5, 254.5) rotate(270)">Wolumen błędów</text></g></g></g><g class="mermaid-tmp-group"/></svg>